<svg id="Layer_1" data-name="Layer 1" xmlns="http://www.w3.org/2000/svg" viewBox="0 0 507.04 598.97"><defs><style>.cls-1{fill:#273e46;}</style></defs><title>Mark-Primary Color</title><path class="cls-1" d="M505.17,404.53c-.36-3.78-.9-7.56-1.44-11.16h-.18a326.25,326.25,0,0,0-28.05-94.43,333.67,333.67,0,0,0,27.87-94.79c.54-3.78,1.08-7.55,1.44-11.33A335.08,335.08,0,0,0,505.89,139v-.18a89.24,89.24,0,0,0-.9-9.53,88.37,88.37,0,0,0-.72-9.54,380.59,380.59,0,0,0-140.65-27h-2.16a349.14,349.14,0,0,0-90.3-82.2,89.07,89.07,0,0,0-10.61-6.29,75.06,75.06,0,0,0-7-4.32c-2.52,1.44-4.86,2.7-7.2,4.32a120.74,120.74,0,0,0-10.43,6.29,345.39,345.39,0,0,0-90.48,82.56H144A379.56,379.56,0,0,0,2.08,120.69c-.36,3.24-.72,6.3-.9,9.54-.36,3.05-.54,6.11-.72,9.17v.18A333.2,333.2,0,0,0,2.08,194.8,110.91,110.91,0,0,0,3.52,206a322.5,322.5,0,0,0,28.06,93.89A333.9,333.9,0,0,0,3.52,395.53c-.54,3.78-.9,7.38-1.26,11.15a319.71,319.71,0,0,0-1.08,52.53,88.38,88.38,0,0,0,.72,9.53c.18,3.42.54,6.84.9,10.43a380.44,380.44,0,0,0,140.66,27h2.15a358.38,358.38,0,0,0,90.66,82.56c3.42,2.16,7,4.32,10.61,6.3,2.16,1.44,4.32,2.7,6.66,4,2.87-1.62,5.75-3.24,8.45-5,3.6-2,7-4.14,10.43-6.3a353.66,353.66,0,0,0,89.4-82h1.26A380,380,0,0,0,505,478.27c.36-3.6.72-7,.9-10.61a82,82,0,0,0,.72-9.53A355.54,355.54,0,0,0,505.17,404.53Zm-12.23-16.37a174.93,174.93,0,0,0-62.77-16.37,338.64,338.64,0,0,0,39.75-61.16A317.55,317.55,0,0,1,492.94,388.16ZM356.6,496.62a363.6,363.6,0,0,1-87.42-12.05,358.34,358.34,0,0,0,91.92-47.85,347.46,347.46,0,0,0,47.48-40.83A331.14,331.14,0,0,1,356.6,496.62ZM98.67,396.25a351.37,351.37,0,0,0,47.84,40.83,364.71,364.71,0,0,0,91.74,47.49,346.89,346.89,0,0,1-87.6,12.23A322.42,322.42,0,0,1,98.67,396.25Zm51.8-293.9a371.76,371.76,0,0,1,87.42,12.05,365,365,0,0,0-139.4,88.49A328.24,328.24,0,0,1,150.47,102.35ZM408.58,202.71A365.4,365.4,0,0,0,268.47,114.4,358.33,358.33,0,0,1,356.42,102,333.66,333.66,0,0,1,408.58,202.71ZM254.08,469.82c-29.5-55.94-87.24-94.79-154-97.49a181.22,181.22,0,0,0,15.11-72.67,179.78,179.78,0,0,0-15.29-72.84,185.3,185.3,0,0,0,153.43-98.57,182.22,182.22,0,0,0,153.78,98.39,182.11,182.11,0,0,0,.54,144.79A183,183,0,0,0,254.08,469.82Zm5.39-349.13A367.19,367.19,0,0,1,355,169.08a344.65,344.65,0,0,1,54.68,48.56C343.83,215.66,287.17,176.63,259.47,120.69ZM97.41,217.82a339.62,339.62,0,0,1,54.14-48.38,360.11,360.11,0,0,1,95.51-48.75A175.59,175.59,0,0,1,97.41,217.82Zm-6.12,11.69a172,172,0,0,1,14.93,70.15,168.84,168.84,0,0,1-14.93,70,321.36,321.36,0,0,1,0-140.12ZM248.5,478.45a355.16,355.16,0,0,1-96.41-48.74,334.66,334.66,0,0,1-54.5-48.39C163.78,383.12,220.8,422.33,248.5,478.45Zm11.15-.36c27.52-56.12,84.54-95.51,150.73-97.67a348.14,348.14,0,0,1-54.86,48.93A352.06,352.06,0,0,1,259.65,478.09ZM416.14,368a172.29,172.29,0,0,1-.36-138.68,326,326,0,0,1,7.73,70.15A322.81,322.81,0,0,1,416.14,368Zm11-129.5A318.43,318.43,0,0,1,464.7,299.3a334.31,334.31,0,0,1-37.59,61.16,325.62,325.62,0,0,0,0-121.95ZM80,360.28a311.72,311.72,0,0,1-37.59-60.62,322.39,322.39,0,0,1,37.41-61,339.4,339.4,0,0,0-5.57,60.79A321,321,0,0,0,80,360.28ZM470.1,287.43a352.74,352.74,0,0,0-40.47-61.15,181.25,181.25,0,0,0,63.13-16.73A316.92,316.92,0,0,1,470.1,287.43Zm24.46-88.85a169.59,169.59,0,0,1-71.77,19.06c-.18-.54-.36-1.26-.54-1.8a176.88,176.88,0,0,1,74.47-72.66A316.44,316.44,0,0,1,494.56,198.58Zm.9-72.49c.18,2.52.54,5,.54,7.55a183.51,183.51,0,0,0-77,70.15A335.4,335.4,0,0,0,368.29,102,365.14,365.14,0,0,1,495.46,126.09ZM349.41,93a380.42,380.42,0,0,0-86.16,13.31,185.5,185.5,0,0,0,11-62.59,161.29,161.29,0,0,0-1.26-21A348,348,0,0,1,349.41,93ZM253.54,10.43c3.23,2,6.47,3.78,9.53,5.94a171.44,171.44,0,0,1,2.16,27.34,171.13,171.13,0,0,1-11.87,63,174.19,174.19,0,0,1-9.54-90.11C247.06,14.39,250.3,12.41,253.54,10.43ZM233.93,22.66a168.84,168.84,0,0,0-1.26,21.41,181.28,181.28,0,0,0,11.15,62.59,373.6,373.6,0,0,0-86.33-13.31A345.62,345.62,0,0,1,233.93,22.66ZM10.89,127a366.71,366.71,0,0,1,127.53-24.47A335.74,335.74,0,0,0,88.06,204.15a183.86,183.86,0,0,0-77.71-70C10.53,131.84,10.71,129.33,10.89,127ZM9.81,143.9A175.49,175.49,0,0,1,84.64,216a6.4,6.4,0,0,1-.36,1.8,174.22,174.22,0,0,1-71.77-17.45A294.84,294.84,0,0,1,9.81,143.9ZM14,211a183.18,183.18,0,0,0,63.49,15.65A331.56,331.56,0,0,0,37,288.33,330.42,330.42,0,0,1,14,211ZM37,311.35a330.06,330.06,0,0,0,40.65,61.34,178.91,178.91,0,0,0-63.49,17.45A316.9,316.9,0,0,1,37,311.35ZM12.33,400.93a173.62,173.62,0,0,1,72-19.61l.54,1.62a176.29,176.29,0,0,1-74.47,71.95A336.68,336.68,0,0,1,12.33,400.93Zm-.72,71.95c-.36-2.7-.54-5.58-.72-8.28A184.33,184.33,0,0,0,88.24,395,328.92,328.92,0,0,0,138.78,496.8,365,365,0,0,1,11.61,472.88ZM157.67,506a379.86,379.86,0,0,0,86.15-13.31A180.55,180.55,0,0,0,233,554.54a177.3,177.3,0,0,0,1.26,21.94A345.22,345.22,0,0,1,157.67,506Zm106.66,75.91c-3.42,2.34-7.2,4.49-10.79,6.65-3.06-1.8-6.12-3.6-9.18-5.75A161.7,161.7,0,0,1,242,554.54a172.29,172.29,0,0,1,12.06-63.32,173.67,173.67,0,0,1,12.23,64.22,178.55,178.55,0,0,1-2,26.26Zm9.89-6.48a180.49,180.49,0,0,0,1.08-20,182.61,182.61,0,0,0-11.15-63,374.71,374.71,0,0,0,85.62,12.95A346,346,0,0,1,274.22,575.4ZM496,472a364.92,364.92,0,0,1-127.35,24.46,337.07,337.07,0,0,0,50.73-102.89,184.31,184.31,0,0,0,77.16,69.79A69.59,69.59,0,0,1,496,472ZM422.79,381.5a1.35,1.35,0,0,1,.18-.9v-.18h.18a170.72,170.72,0,0,1,71.41,18.35,293.49,293.49,0,0,1,2.52,54.86A175.23,175.23,0,0,1,422.79,381.5Z"/><path class="cls-1" d="M321.37,295c-48,0-63.35-15.39-63.35-63.36h-9c0,48-15.38,63.36-63.36,63.36v9c48,0,63.36,15.39,63.36,63.36h9c0-48,15.38-63.36,63.35-63.36Zm-67.85,36.8c-5.32-16.66-15.65-27-32.3-32.3,16.65-5.33,27-15.64,32.3-32.3,5.32,16.66,15.65,27,32.3,32.3C269.17,304.81,258.84,315.12,253.52,331.78Z"/></svg>